<svg xmlns="http://www.w3.org/2000/svg" width="36" height="45" viewBox="0 0 36 45">
  <defs>
    <style>
      .cls-1 {
        fill: #fff;
        fill-rule: evenodd;
        opacity: 0.6;
      }
    </style>
  </defs>
  <path id="Shape_1_copy_19" data-name="Shape 1 copy 19" class="cls-1" d="M4077.99,1287.9l-2.58-29.02a1.232,1.232,0,0,0-1.23-1.13h-5.3a8.886,8.886,0,0,0-17.77,0h-5.29a1.241,1.241,0,0,0-1.24,1.13l-2.57,29.02c0,0.04-.01.07-0.01,0.11,0,3.3,3.02,5.99,6.75,5.99h22.5c3.72,0,6.75-2.69,6.75-5.99A0.41,0.41,0,0,0,4077.99,1287.9ZM4060,1251.48a6.412,6.412,0,0,1,6.4,6.27h-12.8A6.406,6.406,0,0,1,4060,1251.48Zm11.25,40.04h-22.5c-2.34,0-4.23-1.55-4.27-3.46l2.47-27.81h4.15v3.77a1.245,1.245,0,0,0,2.49,0v-3.77h12.81v3.77a1.24,1.24,0,0,0,2.48,0v-3.77h4.16l2.48,27.81C4075.48,1289.97,4073.57,1291.52,4071.25,1291.52Z" transform="translate(-4042 -1249)"/>
</svg>
