<svg xmlns="http://www.w3.org/2000/svg" width="45" height="44.06" viewBox="0 0 45 44.06">
  <defs>
    <style>
      .cls-1 {
        fill: #fff;
        fill-rule: evenodd;
      }
    </style>
  </defs>
  <path id="Forma_1_copy_37" data-name="Forma 1 copy 37" class="cls-1" d="M3826.47,1267.7l-20.96-18.36a1.538,1.538,0,0,0-2.03,0l-20.96,18.36a1.541,1.541,0,0,0,2.03,2.32l1.62-1.42v22.9a1.541,1.541,0,0,0,1.54,1.54h33.56a1.543,1.543,0,0,0,1.55-1.54v-22.9l1.62,1.42a1.549,1.549,0,0,0,1.01.38A1.544,1.544,0,0,0,3826.47,1267.7Zm-25.53,22.26v-12.69h7.11v12.69h-7.11Zm18.79-24.05v24.05h-8.59v-14.23a1.541,1.541,0,0,0-1.54-1.54h-10.21a1.541,1.541,0,0,0-1.54,1.54v14.23h-8.59V1265.9l15.24-13.35,15.23,13.35v0.01Zm-18.69-2.52a1.541,1.541,0,0,0,1.54,1.54h3.83a1.54,1.54,0,0,0,0-3.08h-3.83A1.541,1.541,0,0,0,3801.04,1263.39Z" transform="translate(-3782 -1248.97)"/>
</svg>
