<svg xmlns="http://www.w3.org/2000/svg" width="41" height="39.21" viewBox="0 0 41 39.21">
  <defs>
    <style>
      .cls-1 {
        fill: #fff;
        fill-rule: evenodd;
        opacity: 0.6;
      }
    </style>
  </defs>
  <path id="Forma_1_copy_32" data-name="Forma 1 copy 32" class="cls-1" d="M3940.14,1262.89a1.135,1.135,0,0,0-1.6,0l-14.68,14.63a1.105,1.105,0,0,0,0,1.59,1.135,1.135,0,0,0,1.6,0l14.68-14.63A1.123,1.123,0,0,0,3940.14,1262.89Zm-13.49,7.06a4.28,4.28,0,1,0-4.3-4.28A4.3,4.3,0,0,0,3926.65,1269.95Zm0-6.3a2.025,2.025,0,1,1-2.03,2.02A2.023,2.023,0,0,1,3926.65,1263.65Zm10.7,8.4a4.28,4.28,0,1,0,4.29,4.28A4.3,4.3,0,0,0,3937.35,1272.05Zm0,6.3a2.025,2.025,0,1,1,2.03-2.02A2.032,2.032,0,0,1,3937.35,1278.35Zm12.23-13.04a7.944,7.944,0,0,1-.17-2.27,4.995,4.995,0,0,0-4.46-6.09,7.888,7.888,0,0,1-2.09-.85,7.465,7.465,0,0,1-1.43-1.7,6.522,6.522,0,0,0-3.1-2.83,3.741,3.741,0,0,0-1.18-.18,9.172,9.172,0,0,0-2.89.65,5.02,5.02,0,0,1-4.53,0,9.05,9.05,0,0,0-2.89-.65,3.787,3.787,0,0,0-1.18.18,6.567,6.567,0,0,0-3.1,2.83,7.219,7.219,0,0,1-1.43,1.7,7.888,7.888,0,0,1-2.09.85,6.542,6.542,0,0,0-3.63,2.04,6.622,6.622,0,0,0-.83,4.05,7.284,7.284,0,0,1-.17,2.27,7.173,7.173,0,0,1-1.15,1.84,5.091,5.091,0,0,0,0,7.7,7.173,7.173,0,0,1,1.15,1.84,7.284,7.284,0,0,1,.17,2.27,4.995,4.995,0,0,0,4.46,6.09,7.888,7.888,0,0,1,2.09.85,7.219,7.219,0,0,1,1.43,1.7,6.567,6.567,0,0,0,3.1,2.83,3.787,3.787,0,0,0,1.18.18,9.05,9.05,0,0,0,2.89-.65,5.02,5.02,0,0,1,4.53,0,9.172,9.172,0,0,0,2.89.65,3.741,3.741,0,0,0,1.18-.18,6.522,6.522,0,0,0,3.1-2.83,7.465,7.465,0,0,1,1.43-1.7,7.888,7.888,0,0,1,2.09-.85,6.568,6.568,0,0,0,3.63-2.04,6.485,6.485,0,0,0,.83-4.05,7.944,7.944,0,0,1,.17-2.27,7.533,7.533,0,0,1,1.16-1.84,5.091,5.091,0,0,0,0-7.7A7.533,7.533,0,0,1,3949.58,1265.31Zm-0.65,8.18a8.806,8.806,0,0,0-1.5,2.51,9.392,9.392,0,0,0-.29,2.99,4.868,4.868,0,0,1-.39,2.69,4.924,4.924,0,0,1-2.47,1.21,9.362,9.362,0,0,0-2.75,1.19,8.825,8.825,0,0,0-1.95,2.22,4.922,4.922,0,0,1-1.95,1.98,1.388,1.388,0,0,1-.48.07,7.535,7.535,0,0,1-2.16-.52,7.029,7.029,0,0,0-5.99,0,7.535,7.535,0,0,1-2.16.52,1.426,1.426,0,0,1-.48-0.07,4.907,4.907,0,0,1-1.94-1.98,9.065,9.065,0,0,0-1.96-2.22,9.362,9.362,0,0,0-2.75-1.19,2.929,2.929,0,0,1-2.86-3.9,9.114,9.114,0,0,0-.29-2.99,9.009,9.009,0,0,0-1.49-2.51,3.021,3.021,0,0,1,0-4.98,9.009,9.009,0,0,0,1.49-2.51,9.114,9.114,0,0,0,.29-2.99,2.929,2.929,0,0,1,2.86-3.9,9.362,9.362,0,0,0,2.75-1.19,9.252,9.252,0,0,0,1.96-2.22,4.907,4.907,0,0,1,1.94-1.98,1.426,1.426,0,0,1,.48-0.07,7.46,7.46,0,0,1,2.16.52,7.029,7.029,0,0,0,5.99,0,7.517,7.517,0,0,1,2.17-.52,1.367,1.367,0,0,1,.47.07,4.922,4.922,0,0,1,1.95,1.98,9,9,0,0,0,1.95,2.22,9.362,9.362,0,0,0,2.75,1.19,4.924,4.924,0,0,1,2.47,1.21,4.868,4.868,0,0,1,.39,2.69,9.392,9.392,0,0,0,.29,2.99,8.806,8.806,0,0,0,1.5,2.51A3.035,3.035,0,0,1,3948.93,1273.49Z" transform="translate(-3911.5 -1251.38)"/>
</svg>
