<svg xmlns="http://www.w3.org/2000/svg" width="38" height="38" viewBox="0 0 38 38">
  <defs>
    <style>
      .cls-1 {
        fill: #fff;
        fill-rule: evenodd;
        opacity: 0.6;
      }
    </style>
  </defs>
  <path id="Forma_1_copy_32" data-name="Forma 1 copy 32" class="cls-1" d="M4316,1276.43a9.165,9.165,0,0,0,9.5-9.5v-5.43a9.5,9.5,0,0,0-19,0v5.43A9.165,9.165,0,0,0,4316,1276.43Zm-6.79-14.93a6.785,6.785,0,1,1,13.57,0v5.43a6.785,6.785,0,0,1-13.57,0v-5.43h0Zm16.43,10.84-0.34-.11-0.17.3a11.713,11.713,0,0,1-1.23,1.8l-0.39.47,0.6,0.16c4.39,1.21,7.9,8.02,8.08,12.33H4299.8c0.19-4.32,3.3-11.12,7.68-12.33l0.6-.16-0.39-.47a11.713,11.713,0,0,1-1.23-1.8l-0.17-.3-0.33.11c-5.49,1.82-8.96,9.39-8.96,14.95V1290h38v-2.71C4335,1281.73,4331.13,1274.16,4325.64,1272.34Z" transform="translate(-4297 -1252)"/>
</svg>
